<svg width="46" height="62" viewBox="0 0 46 62" fill="none" xmlns="http://www.w3.org/2000/svg">
<g id="Group 2">
<path id="Vector" d="M43 39.3137C43 51.5508 35.2736 59.2541 22.9999 59.2541C10.7262 59.2541 2.99976 51.5508 2.99976 39.3137C2.99976 26.1821 17.3373 8.45453 21.7346 3.32679C21.8911 3.14461 22.0852 2.99836 22.3038 2.89808C22.5223 2.7978 22.76 2.74588 23.0006 2.74588C23.2411 2.74588 23.4789 2.7978 23.6974 2.89808C23.9159 2.99836 24.1101 3.14461 24.2665 3.32679C28.6624 8.45453 43 26.1821 43 39.3137Z" stroke="black" stroke-width="5" stroke-miterlimit="10"/>
<path id="Vector_2" d="M35.3807 40.8414C35.3807 43.3672 34.3104 45.7897 32.4053 47.5757C30.5001 49.3618 27.9162 50.3652 25.2219 50.3652" stroke="black" stroke-width="5" stroke-linecap="round" stroke-linejoin="round"/>
</g>
</svg>
