<svg width="64" height="64" viewBox="0 0 64 64" fill="none" xmlns="http://www.w3.org/2000/svg">
<path id="Vector" d="M28.8021 1.94568e-07C26.1705 -1.06507e-05 23.5669 0.541083 21.1531 1.58968C18.7394 2.63827 16.567 4.17197 14.7708 6.09552C12.9747 8.01907 11.5931 10.2914 10.712 12.7714C9.83089 15.2514 9.469 17.886 9.64883 20.5118C7.17501 21.5815 5.01153 23.259 3.35919 25.3885C1.70686 27.518 0.619238 30.0304 0.197284 32.6926C-0.22467 35.3548 0.0327209 38.0804 0.945564 40.6165C1.85841 43.1526 3.39711 45.417 5.41886 47.1995C6.05531 47.7613 6.88887 48.0472 7.73615 47.9944C8.58343 47.9416 9.37503 47.5544 9.9368 46.9179C10.4986 46.2814 10.7845 45.4477 10.7317 44.6004C10.6789 43.753 10.2917 42.9613 9.65523 42.3995C8.32967 41.2288 7.35302 39.7148 6.83289 38.0244C6.31276 36.334 6.26935 34.5328 6.70745 32.8193C7.14555 31.1058 8.04814 29.5466 9.31576 28.3133C10.5834 27.0801 12.1668 26.2208 13.8916 25.8301C14.7186 25.6444 15.4381 25.1381 15.8922 24.4224C16.3463 23.7066 16.4979 22.8399 16.3138 22.0125C15.961 20.3688 15.9354 18.6717 16.2385 17.0181C16.5416 15.3645 17.1674 13.7868 18.0801 12.3751C18.9928 10.9634 20.1747 9.74527 21.5582 8.79032C22.9416 7.83538 24.4996 7.1623 26.1432 6.80952C27.7867 6.45674 29.4837 6.43117 31.1371 6.73427C32.7906 7.03736 34.3681 7.66319 35.7797 8.57602C37.1913 9.48884 38.4094 10.6708 39.3642 12.0544C40.3191 13.438 40.9921 14.9961 41.3448 16.6398C41.4943 17.3729 41.896 18.0305 42.4799 18.4982C43.0639 18.9659 43.7933 19.2141 44.5413 19.1998H44.8005C47.4867 19.1998 50.1048 20.045 52.284 21.6159C54.4632 23.1867 56.093 25.4034 56.9424 27.952C57.7919 30.5006 57.818 33.2519 57.017 35.8161C56.2161 38.3804 54.6287 40.6276 52.4797 42.2395C52.1436 42.4919 51.8604 42.808 51.6464 43.1697C51.4324 43.5315 51.2918 43.9319 51.2325 44.3481C51.1732 44.7642 51.1965 45.188 51.3009 45.5951C51.4054 46.0023 51.5891 46.3849 51.8414 46.7211C52.0937 47.0572 52.4098 47.3404 52.7715 47.5545C53.1333 47.7685 53.5336 47.9091 53.9498 47.9684C54.3659 48.0277 54.7896 48.0044 55.1967 47.8999C55.6038 47.7955 55.9864 47.6118 56.3225 47.3595C59.3989 45.0515 61.7112 41.8726 62.9599 38.2349C64.2085 34.5972 64.336 30.6683 63.3258 26.9573C62.3155 23.2463 60.2141 19.9243 57.2939 17.4217C54.3736 14.9191 50.7691 13.3513 46.9475 12.9215C45.6419 9.1481 43.1925 5.87568 39.9403 3.55971C36.688 1.24373 32.7946 -0.000568089 28.8021 1.94568e-07ZM35.0383 42.6107C35.1711 42.2119 35.224 41.7909 35.1941 41.3716C35.1641 40.9524 35.0519 40.5431 34.8639 40.1672C34.6758 39.7913 34.4155 39.4562 34.0979 39.1809C33.7803 38.9056 33.4116 38.6955 33.0129 38.5628C32.6141 38.43 32.1931 38.377 31.7739 38.407C31.3547 38.4369 30.9455 38.5491 30.5696 38.7372C29.8105 39.1171 29.2334 39.7829 28.9653 40.5883L22.5659 59.7881C22.4332 60.1869 22.3802 60.608 22.4101 61.0272C22.4401 61.4465 22.5523 61.8557 22.7403 62.2316C23.1202 62.9907 23.786 63.5679 24.5913 63.8361C25.3967 64.1042 26.2755 64.0415 27.0346 63.6616C27.7937 63.2818 28.3708 62.6159 28.6389 61.8105L35.0383 42.6107ZM45.8116 35.3628C46.2104 35.4955 46.5792 35.7055 46.8968 35.9808C47.2145 36.256 47.4748 36.5912 47.6628 36.9671C47.8509 37.343 47.9631 37.7523 47.993 38.1716C48.0229 38.5909 47.9699 39.012 47.837 39.4107L41.4376 58.6105C41.1695 59.4159 40.5924 60.0818 39.8333 60.4617C39.0742 60.8415 38.1954 60.9043 37.39 60.6361C36.5847 60.3679 35.9189 59.7908 35.5391 59.0316C35.1592 58.2725 35.0965 57.3936 35.3646 56.5882L41.764 37.3884C41.8967 36.9895 42.1067 36.6207 42.3819 36.3031C42.6572 35.9854 42.9923 35.7251 43.3682 35.537C43.7441 35.3489 44.1533 35.2367 44.5726 35.2068C44.9918 35.1769 45.4128 35.2299 45.8116 35.3628ZM23.8426 39.4107C24.1108 38.6053 24.048 37.7264 23.6682 36.9673C23.2884 36.2081 22.6225 35.631 21.8172 35.3628C21.0119 35.0946 20.133 35.1574 19.3739 35.5372C18.6149 35.9171 18.0378 36.583 17.7696 37.3884L11.3703 56.5882C11.1021 57.3936 11.1648 58.2725 11.5447 59.0316C11.9245 59.7908 12.5903 60.3679 13.3957 60.6361C14.201 60.9043 15.0799 60.8415 15.8389 60.4617C16.598 60.0818 17.1751 59.4159 17.4432 58.6105L23.8426 39.4107Z" fill="black"/>
</svg>
