<svg width="34" height="62" viewBox="0 0 34 62" fill="none" xmlns="http://www.w3.org/2000/svg">
<path id="Vector" d="M17 4.76923C15.0677 4.76923 13.2146 5.52294 11.8482 6.86455C10.4819 8.20616 9.71429 10.0258 9.71429 11.9231V35.7096L8.90557 36.4203C7.07236 38.03 5.78014 40.1483 5.19992 42.495C4.61971 44.8416 4.77885 47.3059 5.65629 49.5618C6.53373 51.8177 8.0881 53.7588 10.1137 55.1283C12.1393 56.4978 14.5407 57.231 17 57.231C19.4593 57.231 21.8607 56.4978 23.8863 55.1283C25.9119 53.7588 27.4663 51.8177 28.3437 49.5618C29.2211 47.3059 29.3803 44.8416 28.8001 42.495C28.2199 40.1483 26.9276 38.03 25.0944 36.4203L24.2857 35.7096V11.9231C24.2857 10.0258 23.5181 8.20616 22.1518 6.86455C20.7854 5.52294 18.9323 4.76923 17 4.76923ZM4.85715 11.9231C4.85715 8.76089 6.13648 5.7282 8.41371 3.49219C10.6909 1.25618 13.7795 0 17 0C20.2205 0 23.3091 1.25618 25.5863 3.49219C27.8635 5.7282 29.1429 8.76089 29.1429 11.9231V33.6255C31.4856 35.9733 33.0703 38.948 33.6982 42.1766C34.3262 45.4051 33.9693 48.7439 32.6725 51.7742C31.3757 54.8044 29.1967 57.3913 26.4086 59.2105C23.6205 61.0296 20.3475 62 17 62C13.6525 62 10.3795 61.0296 7.5914 59.2105C4.80332 57.3913 2.62425 54.8044 1.32745 51.7742C0.0306549 48.7439 -0.326156 45.4051 0.301764 42.1766C0.929683 38.948 2.51438 35.9733 4.85715 33.6255V11.9231ZM14.5714 21.4616C14.5714 20.8291 14.8273 20.2226 15.2827 19.7754C15.7382 19.3282 16.3559 19.0769 17 19.0769C17.6441 19.0769 18.2618 19.3282 18.7173 19.7754C19.1727 20.2226 19.4286 20.8291 19.4286 21.4616V38.5593C21.0496 39.1218 22.4159 40.229 23.286 41.685C24.1561 43.1411 24.4739 44.8523 24.1833 46.5162C23.8926 48.1801 23.0122 49.6896 21.6978 50.7777C20.3833 51.8659 18.7193 52.4627 17 52.4627C15.2807 52.4627 13.6167 51.8659 12.3022 50.7777C10.9878 49.6896 10.1074 48.1801 9.81675 46.5162C9.52611 44.8523 9.84391 43.1411 10.714 41.685C11.5841 40.229 12.9504 39.1218 14.5714 38.5593V21.4616Z" fill="black"/>
</svg>
