<svg width="60" height="60" viewBox="0 0 60 60" fill="none" xmlns="http://www.w3.org/2000/svg">
<path id="Vector" d="M5.7 18H11.1M16.5 11.571V10.5C16.5 9.01664 16.8959 7.56659 17.6376 6.33323C18.3793 5.09986 19.4335 4.13856 20.6669 3.57091C21.9003 3.00325 23.2575 2.85472 24.5669 3.14411C25.8762 3.4335 27.079 4.14781 28.023 5.1967C28.967 6.2456 29.6098 7.58197 29.8703 9.03683C30.1307 10.4917 29.9971 11.9997 29.4862 13.3701C28.9753 14.7406 28.1101 15.9119 27.0001 16.736C25.8901 17.5601 24.585 18 23.25 18H19.2M8.4 36H11.1M38.1 45V46.5C38.1 48.5767 38.6542 50.6068 39.6926 52.3335C40.731 54.0602 42.2069 55.406 43.9336 56.2007C45.6604 56.9955 47.5605 57.2034 49.3936 56.7982C51.2267 56.3931 52.9106 55.3931 54.2322 53.9246C55.5538 52.4562 56.4538 50.5852 56.8184 48.5484C57.183 46.5116 56.9959 44.4004 56.2807 42.4818C55.5654 40.5632 54.3542 38.9233 52.8001 37.7696C51.2461 36.6158 49.419 36 47.55 36H21.9M3 27H19.2M38.1 18V16.5C38.1 14.4233 38.6542 12.3932 39.6926 10.6665C40.731 8.9398 42.2069 7.59399 43.9336 6.79927C45.6604 6.00455 47.5605 5.79661 49.3936 6.20176C51.2267 6.6069 52.9106 7.60693 54.2322 9.07538C55.5538 10.5438 56.4538 12.4148 56.8184 14.4516C57.183 16.4884 56.9959 18.5996 56.2807 20.5182C55.5654 22.4368 54.3542 24.0767 52.8001 25.2304C51.2461 26.3842 49.419 27 47.55 27H30.675" stroke="black" stroke-width="5" stroke-linecap="round"/>
</svg>
